<!-- Generated by IcoMoon.io -->
<svg version="1.1" xmlns="http://www.w3.org/2000/svg" width="43" height="32" viewBox="0 0 43 32">
<path fill="#fff" d="M6.367 0h29.932c1.182-0.002 2.34 0.316 3.34 0.916s1.802 1.457 2.312 2.474c0.597 1.206 0.828 2.547 0.664 3.871s-0.714 2.578-1.588 3.619l-14.966 17.285c-0.587 0.646-1.313 1.164-2.129 1.519s-1.702 0.539-2.599 0.539-1.783-0.184-2.599-0.539c-0.816-0.355-1.542-0.873-2.129-1.519l-14.966-17.285c-0.875-1.041-1.425-2.294-1.588-3.619s0.067-2.666 0.664-3.871c0.51-1.016 1.312-1.874 2.312-2.474s2.158-0.917 3.34-0.916z"></path>
</svg>
