<!-- Generated by IcoMoon.io -->
<svg version="1.1" xmlns="http://www.w3.org/2000/svg" width="32" height="32" viewBox="0 0 32 32">
<path fill="#fff" d="M32.889 14.791c0 1.837-0.287 3.51-0.861 5.020-0.575 1.513-1.389 2.693-2.445 3.54-1.058 0.851-2.292 1.263-3.701 1.235-0.943-0.018-1.78-0.264-2.51-0.738-0.732-0.475-1.259-1.092-1.581-1.852l-0.309-0.007c-1.395 1.645-3.18 2.449-5.361 2.407-2.327-0.046-4.172-0.782-5.528-2.215-1.361-1.439-2.043-3.383-2.043-5.832 0-2.792 0.896-5.007 2.682-6.638 1.776-1.623 4.082-2.367 6.907-2.241 1.118 0.050 2.346 0.212 3.681 0.486 1.33 0.272 2.422 0.576 3.278 0.91l-0.44 9.457c0 1.796 0.485 2.705 1.453 2.73 0.813 0.020 1.459-0.565 1.94-1.754 0.48-1.188 0.72-2.75 0.72-4.688 0-2.067-0.423-3.91-1.27-5.534-0.85-1.627-2.048-2.897-3.6-3.812-1.559-0.918-3.348-1.43-5.371-1.531-2.638-0.133-4.947 0.296-6.919 1.291-1.984 1.001-3.513 2.516-4.581 4.544-1.071 2.035-1.608 4.417-1.608 7.141 0 3.669 0.996 6.504 2.978 8.498 1.971 1.982 4.807 2.994 8.487 3.046 1.383 0.019 2.896-0.113 4.538-0.395 1.634-0.28 3.234-0.699 4.801-1.255v3.711c-2.732 1.148-5.789 1.711-9.182 1.683-5.002-0.041-8.953-1.398-11.816-4.087-2.887-2.711-4.34-6.457-4.34-11.22 0-3.305 0.742-6.276 2.223-8.905 1.474-2.618 3.561-4.615 6.252-5.993 2.669-1.367 5.715-1.95 9.128-1.759 2.849 0.159 5.375 0.883 7.582 2.164 2.193 1.273 3.875 3 5.054 5.182 1.175 2.174 1.761 4.642 1.761 7.41zM13.181 16.572c0 2.773 1.135 4.188 3.392 4.244 1.175 0.029 2.067-0.362 2.678-1.174 0.609-0.81 0.979-2.142 1.108-3.998l0.252-4.3c-0.66-0.169-1.406-0.27-2.238-0.303-1.631-0.064-2.905 0.396-3.818 1.383-0.916 0.99-1.375 2.373-1.375 4.148h0.001z"></path>
</svg>
