<svg aria-hidden="true" style="position: absolute; width: 0; height: 0; overflow: hidden;" version="1.1" xmlns="http://www.w3.org/2000/svg" xmlns:xlink="http://www.w3.org/1999/xlink">
<defs>
<symbol id="icon-telegram" viewBox="0 0 39 32">
<path fill="#fff" style="fill: var(--color1, #fff)" d="M38.56 2.962l-5.869 27.074c-0.23 0.967-0.62 1.579-1.16 1.825-0.55 0.257-1.22 0.158-2.030-0.296l-8.889-6.473-4.309 4.085c-0.29 0.286-0.52 0.483-0.69 0.592-0.29 0.168-0.66 0.257-1.12 0.257l0.69-8.939 16.478-14.731c0.23-0.168 0.3-0.326 0.22-0.464-0.090-0.138-0.26-0.197-0.52-0.168s-0.53 0.128-0.82 0.296l-20.357 12.688-8.799-2.723c-0.98-0.286-1.44-0.71-1.38-1.273s0.66-1.075 1.81-1.529l34.245-13.024c0.86-0.286 1.55-0.187 2.070 0.296s0.66 1.322 0.43 2.516v-0.010z"></path>
</symbol>
<symbol id="icon-linkedin" viewBox="0 0 32 32">
<path fill="#fff" style="fill: var(--color1, #fff)" d="M3.862 7.72c-1.051 0-1.948-0.384-2.717-1.144-0.76-0.76-1.145-1.665-1.145-2.716s0.385-1.947 1.145-2.716c0.76-0.76 1.666-1.144 2.717-1.144s1.948 0.384 2.717 1.144c0.76 0.76 1.145 1.665 1.145 2.716s-0.385 1.947-1.145 2.716c-0.76 0.76-1.666 1.144-2.717 1.144zM7.143 31.991h-6.639v-21.342h6.639v21.342zM32 31.991h-6.639v-10.419c0-1.717-0.145-2.946-0.427-3.715-0.521-1.281-1.547-1.93-3.067-1.93s-2.598 0.572-3.213 1.717c-0.479 0.854-0.718 2.118-0.718 3.783v10.564h-6.571v-21.342h6.357v2.929h0.068c0.479-0.948 1.239-1.734 2.281-2.357 1.145-0.76 2.478-1.144 3.999-1.144 3.093 0 5.263 0.974 6.503 2.929 0.948 1.571 1.427 3.997 1.427 7.285v11.7z"></path>
</symbol>
<symbol id="icon-instagram" viewBox="0 0 32 32">
<path fill="#fff" style="fill: var(--color1, #fff)" d="M28.8 9.6c0-3.532-2.868-6.4-6.4-6.4h-12.8c-3.532 0-6.4 2.868-6.4 6.4v12.8c0 3.532 2.868 6.4 6.4 6.4h12.8c3.532 0 6.4-2.868 6.4-6.4v-12.8zM32 22.4c0 5.3-4.3 9.6-9.6 9.6h-12.8c-5.3 0-9.6-4.3-9.6-9.6v-12.8c0-5.3 4.3-9.6 9.6-9.6h12.8c5.3 0 9.6 4.3 9.6 9.6v12.8z"></path>
<path fill="#fff" style="fill: var(--color1, #fff)" d="M20.8 16c0-2.652-2.148-4.8-4.8-4.8s-4.8 2.148-4.8 4.8c0 2.652 2.148 4.8 4.8 4.8s4.8-2.148 4.8-4.8zM24 16c0 4.42-3.58 8-8 8s-8-3.58-8-8c0-4.42 3.58-8 8-8s8 3.58 8 8z"></path>
</symbol>
<symbol id="icon-arrow-logo-reverse" viewBox="0 0 43 32">
<path fill="#fff" style="fill: var(--color1, #fff)" d="M36.299 24.889h-29.932c-1.182 0.002-2.34-0.316-3.34-0.916s-1.802-1.457-2.312-2.474c-0.597-1.206-0.827-2.547-0.664-3.871s0.714-2.578 1.588-3.619l14.966-17.285c0.587-0.646 1.313-1.164 2.129-1.519s1.702-0.539 2.599-0.539 1.783 0.184 2.599 0.539c0.816 0.355 1.542 0.873 2.129 1.519l14.966 17.285c0.875 1.041 1.425 2.295 1.588 3.619s-0.067 2.666-0.664 3.871c-0.51 1.016-1.312 1.874-2.312 2.474s-2.158 0.917-3.34 0.916z"></path>
</symbol>
<symbol id="icon-arrow" viewBox="0 0 43 32">
<path fill="#fff" style="fill: var(--color1, #fff)" d="M6.367 0h29.932c1.182-0.002 2.34 0.316 3.34 0.916s1.802 1.457 2.312 2.474c0.597 1.206 0.828 2.547 0.664 3.871s-0.714 2.578-1.588 3.619l-14.966 17.285c-0.587 0.646-1.313 1.164-2.129 1.519s-1.702 0.539-2.599 0.539-1.783-0.184-2.599-0.539c-0.816-0.355-1.542-0.873-2.129-1.519l-14.966-17.285c-0.875-1.041-1.425-2.294-1.588-3.619s0.067-2.666 0.664-3.871c0.51-1.016 1.312-1.874 2.312-2.474s2.158-0.917 3.34-0.916z"></path>
</symbol>
<symbol id="icon-behance" viewBox="0 0 56 32">
<path fill="#f1f2f2" style="fill: var(--color2, #f1f2f2)" d="M21.247 14.145c0 0 4.874-0.351 4.874-5.896s-3.987-8.249-9.042-8.249h-16.634v30.987h16.634c0 0 10.155 0.314 10.155-9.146 0 0 0.447-7.69-5.987-7.69v-0.006zM7.778 5.501h9.307c0 0 2.259 0 2.259 3.224s-1.327 3.688-2.835 3.688h-8.725v-6.919l-0.006 0.006zM16.651 25.474h-8.874v-8.28h9.307c0 0 3.372-0.044 3.372 4.253 0 3.588-2.466 3.989-3.799 4.027h-0.006z"></path>
<path fill="#f1f2f2" style="fill: var(--color2, #f1f2f2)" d="M49.608 0.255h-14.003v4.061h14.003v-4.061z"></path>
<path fill="#f1f2f2" style="fill: var(--color2, #f1f2f2)" d="M42.91 6.708c-13.048 0-13.034 12.676-13.034 12.676s-0.893 12.609 13.041 12.609c0 0 11.612 0.648 11.612-8.769h-5.971c0 0 0.199 3.546-5.442 3.546 0 0-5.971 0.387-5.971-5.737h17.582c0 0 1.924-14.319-11.818-14.319v-0.007zM37.069 16.626c0 0 0.728-5.089 5.971-5.089s5.174 5.089 5.174 5.089h-11.144z"></path>
</symbol>
<symbol id="icon-email" viewBox="0 0 32 32">
<path fill="#fff" style="fill: var(--color1, #fff)" d="M32.889 14.791c0 1.837-0.287 3.51-0.861 5.020-0.575 1.513-1.389 2.693-2.445 3.54-1.058 0.851-2.292 1.263-3.701 1.235-0.943-0.018-1.78-0.264-2.51-0.738-0.732-0.475-1.259-1.092-1.581-1.852l-0.309-0.007c-1.395 1.645-3.18 2.449-5.361 2.407-2.327-0.046-4.172-0.782-5.528-2.215-1.361-1.439-2.043-3.383-2.043-5.832 0-2.792 0.896-5.007 2.682-6.638 1.776-1.623 4.082-2.367 6.907-2.241 1.118 0.050 2.346 0.212 3.681 0.486 1.33 0.272 2.422 0.576 3.278 0.91l-0.44 9.457c0 1.796 0.485 2.705 1.453 2.73 0.813 0.020 1.459-0.565 1.94-1.754 0.48-1.188 0.72-2.75 0.72-4.688 0-2.067-0.423-3.91-1.27-5.534-0.85-1.627-2.048-2.897-3.6-3.812-1.559-0.918-3.348-1.43-5.371-1.531-2.638-0.133-4.947 0.296-6.919 1.291-1.984 1.001-3.513 2.516-4.581 4.544-1.071 2.035-1.608 4.417-1.608 7.141 0 3.669 0.996 6.504 2.978 8.498 1.971 1.982 4.807 2.994 8.487 3.046 1.383 0.019 2.896-0.113 4.538-0.395 1.634-0.28 3.234-0.699 4.801-1.255v3.711c-2.732 1.148-5.789 1.711-9.182 1.683-5.002-0.041-8.953-1.398-11.816-4.087-2.887-2.711-4.34-6.457-4.34-11.22 0-3.305 0.742-6.276 2.223-8.905 1.474-2.618 3.561-4.615 6.252-5.993 2.669-1.367 5.715-1.95 9.128-1.759 2.849 0.159 5.375 0.883 7.582 2.164 2.193 1.273 3.875 3 5.054 5.182 1.175 2.174 1.761 4.642 1.761 7.41zM13.181 16.572c0 2.773 1.135 4.188 3.392 4.244 1.175 0.029 2.067-0.362 2.678-1.174 0.609-0.81 0.979-2.142 1.108-3.998l0.252-4.3c-0.66-0.169-1.406-0.27-2.238-0.303-1.631-0.064-2.905 0.396-3.818 1.383-0.916 0.99-1.375 2.373-1.375 4.148h0.001z"></path>
</symbol>
</defs>
</svg>
