<!-- Generated by IcoMoon.io -->
<svg version="1.1" xmlns="http://www.w3.org/2000/svg" width="32" height="32" viewBox="0 0 32 32">
<path fill="#fff" d="M3.862 7.72c-1.051 0-1.948-0.384-2.717-1.144-0.76-0.76-1.145-1.665-1.145-2.716s0.385-1.947 1.145-2.716c0.76-0.76 1.666-1.144 2.717-1.144s1.948 0.384 2.717 1.144c0.76 0.76 1.145 1.665 1.145 2.716s-0.385 1.947-1.145 2.716c-0.76 0.76-1.666 1.144-2.717 1.144zM7.143 31.991h-6.639v-21.342h6.639v21.342zM32 31.991h-6.639v-10.419c0-1.717-0.145-2.946-0.427-3.715-0.521-1.281-1.547-1.93-3.067-1.93s-2.598 0.572-3.213 1.717c-0.479 0.854-0.718 2.118-0.718 3.783v10.564h-6.571v-21.342h6.357v2.929h0.068c0.479-0.948 1.239-1.734 2.281-2.357 1.145-0.76 2.478-1.144 3.999-1.144 3.093 0 5.263 0.974 6.503 2.929 0.948 1.571 1.427 3.997 1.427 7.285v11.7z"></path>
</svg>
