<!-- Generated by IcoMoon.io -->
<svg version="1.1" xmlns="http://www.w3.org/2000/svg" width="56" height="32" viewBox="0 0 56 32">
<path fill="#f1f2f2" d="M21.247 14.145c0 0 4.874-0.351 4.874-5.896s-3.987-8.249-9.042-8.249h-16.634v30.987h16.634c0 0 10.155 0.314 10.155-9.146 0 0 0.447-7.69-5.987-7.69v-0.006zM7.778 5.501h9.307c0 0 2.259 0 2.259 3.224s-1.327 3.688-2.835 3.688h-8.725v-6.919l-0.006 0.006zM16.651 25.474h-8.874v-8.28h9.307c0 0 3.372-0.044 3.372 4.253 0 3.588-2.466 3.989-3.799 4.027h-0.006z"></path>
<path fill="#f1f2f2" d="M49.608 0.255h-14.003v4.061h14.003v-4.061z"></path>
<path fill="#f1f2f2" d="M42.91 6.708c-13.048 0-13.034 12.676-13.034 12.676s-0.893 12.609 13.041 12.609c0 0 11.612 0.648 11.612-8.769h-5.971c0 0 0.199 3.546-5.442 3.546 0 0-5.971 0.387-5.971-5.737h17.582c0 0 1.924-14.319-11.818-14.319v-0.007zM37.069 16.626c0 0 0.728-5.089 5.971-5.089s5.174 5.089 5.174 5.089h-11.144z"></path>
</svg>
