<!-- Generated by IcoMoon.io -->
<svg version="1.1" xmlns="http://www.w3.org/2000/svg" width="32" height="32" viewBox="0 0 32 32">
<path fill="#fff" d="M28.8 9.6c0-3.532-2.868-6.4-6.4-6.4h-12.8c-3.532 0-6.4 2.868-6.4 6.4v12.8c0 3.532 2.868 6.4 6.4 6.4h12.8c3.532 0 6.4-2.868 6.4-6.4v-12.8zM32 22.4c0 5.3-4.3 9.6-9.6 9.6h-12.8c-5.3 0-9.6-4.3-9.6-9.6v-12.8c0-5.3 4.3-9.6 9.6-9.6h12.8c5.3 0 9.6 4.3 9.6 9.6v12.8z"></path>
<path fill="#fff" d="M20.8 16c0-2.652-2.148-4.8-4.8-4.8s-4.8 2.148-4.8 4.8c0 2.652 2.148 4.8 4.8 4.8s4.8-2.148 4.8-4.8zM24 16c0 4.42-3.58 8-8 8s-8-3.58-8-8c0-4.42 3.58-8 8-8s8 3.58 8 8z"></path>
</svg>
