<!-- Generated by IcoMoon.io -->
<svg version="1.1" xmlns="http://www.w3.org/2000/svg" width="39" height="32" viewBox="0 0 39 32">
<path fill="#fff" d="M38.56 2.962l-5.869 27.074c-0.23 0.967-0.62 1.579-1.16 1.825-0.55 0.257-1.22 0.158-2.030-0.296l-8.889-6.473-4.309 4.085c-0.29 0.286-0.52 0.483-0.69 0.592-0.29 0.168-0.66 0.257-1.12 0.257l0.69-8.939 16.478-14.731c0.23-0.168 0.3-0.326 0.22-0.464-0.090-0.138-0.26-0.197-0.52-0.168s-0.53 0.128-0.82 0.296l-20.357 12.688-8.799-2.723c-0.98-0.286-1.44-0.71-1.38-1.273s0.66-1.075 1.81-1.529l34.245-13.024c0.86-0.286 1.55-0.187 2.070 0.296s0.66 1.322 0.43 2.516v-0.010z"></path>
</svg>
